<svg width="32" height="33" viewBox="0 0 32 33" fill="none" xmlns="http://www.w3.org/2000/svg">
<path d="M13.5 29.5C13.1022 29.5 12.7206 29.342 12.4393 29.0607C12.158 28.7794 12 28.3978 12 28C12 27.6022 12.158 27.2206 12.4393 26.9393C12.7206 26.658 13.1022 26.5 13.5 26.5C13.8978 26.5 14.2794 26.658 14.5607 26.9393C14.842 27.2206 15 27.6022 15 28C15 28.3978 14.842 28.7794 14.5607 29.0607C14.2794 29.342 13.8978 29.5 13.5 29.5ZM23.5 29.5C23.1022 29.5 22.7206 29.342 22.4393 29.0607C22.158 28.7794 22 28.3978 22 28C22 27.6022 22.158 27.2206 22.4393 26.9393C22.7206 26.658 23.1022 26.5 23.5 26.5C23.8978 26.5 24.2794 26.658 24.5607 26.9393C24.842 27.2206 25 27.6022 25 28C25 28.3978 24.842 28.7794 24.5607 29.0607C24.2794 29.342 23.8978 29.5 23.5 29.5ZM3 4.5C2.73478 4.5 2.48043 4.39464 2.29289 4.20711C2.10536 4.01957 2 3.76522 2 3.5C2 3.23478 2.10536 2.98043 2.29289 2.79289C2.48043 2.60536 2.73478 2.5 3 2.5H8C8.23109 2.50014 8.455 2.58031 8.63366 2.72689C8.81232 2.87346 8.93471 3.07739 8.98 3.304L10.02 8.5H29C29.1492 8.49996 29.2965 8.53329 29.4311 8.59755C29.5657 8.66181 29.6843 8.75538 29.778 8.87139C29.8718 8.98741 29.9384 9.12293 29.973 9.26804C30.0076 9.41314 30.0093 9.56415 29.978 9.71L26.978 23.71C26.93 23.9337 26.8067 24.1341 26.6287 24.2779C26.4507 24.4217 26.2288 24.5001 26 24.5H12C11.7689 24.4999 11.545 24.4197 11.3663 24.2731C11.1877 24.1265 11.0653 23.9226 11.02 23.696L7.18 4.5H3ZM12.82 22.5H25.192L27.764 10.5H10.42L12.82 22.5Z" fill="#BFBCCC"/>
</svg>
