<svg width="40" height="40" viewBox="0 0 40 40" fill="none" xmlns="http://www.w3.org/2000/svg">
<path d="M6.66675 6.66663H16.6667V16.6666H6.66675V6.66663ZM23.3334 6.66663H33.3334V16.6666H23.3334V6.66663ZM6.66675 23.3333H16.6667V33.3333H6.66675V23.3333ZM23.3334 28.3333C23.3334 29.6594 23.8602 30.9311 24.7979 31.8688C25.7356 32.8065 27.0073 33.3333 28.3334 33.3333C29.6595 33.3333 30.9313 32.8065 31.8689 31.8688C32.8066 30.9311 33.3334 29.6594 33.3334 28.3333C33.3334 27.0072 32.8066 25.7354 31.8689 24.7978C30.9313 23.8601 29.6595 23.3333 28.3334 23.3333C27.0073 23.3333 25.7356 23.8601 24.7979 24.7978C23.8602 25.7354 23.3334 27.0072 23.3334 28.3333Z" stroke="black" stroke-width="3" stroke-linecap="round" stroke-linejoin="round"/>
</svg>
