<svg width="32" height="33" viewBox="0 0 32 33" fill="none" xmlns="http://www.w3.org/2000/svg">
<path d="M12 18.0001C12 18.2967 11.912 18.5867 11.7472 18.8334C11.5824 19.0801 11.3481 19.2723 11.074 19.3859C10.7999 19.4994 10.4983 19.5291 10.2074 19.4712C9.91639 19.4134 9.64912 19.2705 9.43934 19.0607C9.22956 18.8509 9.0867 18.5837 9.02882 18.2927C8.97094 18.0017 9.00065 17.7001 9.11418 17.426C9.22771 17.1519 9.41997 16.9177 9.66665 16.7528C9.91332 16.588 10.2033 16.5001 10.5 16.5001C10.8978 16.5001 11.2794 16.6581 11.5607 16.9394C11.842 17.2207 12 17.6022 12 18.0001ZM21.5 16.5001C21.2033 16.5001 20.9133 16.588 20.6666 16.7528C20.42 16.9177 20.2277 17.1519 20.1142 17.426C20.0007 17.7001 19.9709 18.0017 20.0288 18.2927C20.0867 18.5837 20.2296 18.8509 20.4393 19.0607C20.6491 19.2705 20.9164 19.4134 21.2074 19.4712C21.4983 19.5291 21.7999 19.4994 22.074 19.3859C22.3481 19.2723 22.5824 19.0801 22.7472 18.8334C22.912 18.5867 23 18.2967 23 18.0001C23 17.6022 22.842 17.2207 22.5607 16.9394C22.2794 16.6581 21.8978 16.5001 21.5 16.5001ZM29 6.50005V17.5001C29 24.1163 23.1688 29.5001 16 29.5001C8.83125 29.5001 3 24.1163 3 17.5001V6.50005C3.00018 6.10462 3.11758 5.71812 3.33736 5.3894C3.55713 5.06067 3.86942 4.80447 4.23476 4.65317C4.6001 4.50187 5.00209 4.46226 5.38993 4.53936C5.77777 4.61645 6.13405 4.80678 6.41375 5.0863C6.43125 5.1038 6.44625 5.12005 6.46125 5.13755L8.625 7.62505C10.8374 6.2389 13.3955 5.50375 16.0063 5.50375C18.617 5.50375 21.1751 6.2389 23.3875 7.62505L25.5387 5.13755C25.5537 5.12005 25.5688 5.1038 25.5863 5.0863C25.866 4.80678 26.2222 4.61645 26.6101 4.53936C26.9979 4.46226 27.3999 4.50187 27.7652 4.65317C28.1306 4.80447 28.4429 5.06067 28.6626 5.3894C28.8824 5.71812 28.9998 6.10462 29 6.50005ZM27 6.50005L24.305 9.60005C24.1401 9.79077 23.9093 9.91219 23.6588 9.94C23.4082 9.96782 23.1564 9.89997 22.9538 9.75005C22.3436 9.29902 21.689 8.91159 21 8.5938V11.5001C21 11.7653 20.8946 12.0196 20.7071 12.2072C20.5196 12.3947 20.2652 12.5001 20 12.5001C19.7348 12.5001 19.4804 12.3947 19.2929 12.2072C19.1054 12.0196 19 11.7653 19 11.5001V7.8813C18.344 7.71253 17.675 7.5988 17 7.5413V11.5001C17 11.7653 16.8946 12.0196 16.7071 12.2072C16.5196 12.3947 16.2652 12.5001 16 12.5001C15.7348 12.5001 15.4804 12.3947 15.2929 12.2072C15.1054 12.0196 15 11.7653 15 11.5001V7.5413C14.325 7.5988 13.656 7.71253 13 7.8813V11.5001C13 11.7653 12.8946 12.0196 12.7071 12.2072C12.5196 12.3947 12.2652 12.5001 12 12.5001C11.7348 12.5001 11.4804 12.3947 11.2929 12.2072C11.1054 12.0196 11 11.7653 11 11.5001V8.5938C10.311 8.91159 9.65637 9.29902 9.04625 9.75005C8.84403 9.90041 8.59249 9.96888 8.34196 9.94177C8.09143 9.91465 7.86037 9.79395 7.695 9.6038L5 6.50005V17.5001C5 22.7076 9.40125 27.0001 15 27.4588V24.9138L13.2925 23.2063C13.1997 23.1134 13.1261 23.0031 13.0758 22.8817C13.0256 22.7604 12.9998 22.6303 12.9999 22.499C12.9999 22.3676 13.0259 22.2376 13.0762 22.1163C13.1265 21.995 13.2002 21.8848 13.2931 21.7919C13.4808 21.6045 13.7352 21.4992 14.0004 21.4993C14.1318 21.4994 14.2618 21.5253 14.3831 21.5756C14.5045 21.6259 14.6147 21.6996 14.7075 21.7926L16 23.0851L17.2925 21.7926C17.3853 21.6996 17.4955 21.6259 17.6169 21.5756C17.7382 21.5253 17.8682 21.4994 17.9996 21.4993C18.1309 21.4993 18.261 21.5251 18.3823 21.5753C18.5037 21.6255 18.614 21.6991 18.7069 21.7919C18.7998 21.8848 18.8735 21.995 18.9238 22.1163C18.9741 22.2376 19.0001 22.3676 19.0001 22.499C19.0002 22.6303 18.9744 22.7604 18.9242 22.8817C18.8739 23.0031 18.8003 23.1134 18.7075 23.2063L17 24.9138V27.4588C22.5988 26.9976 27 22.7088 27 17.5001V6.50005Z" fill="#BFBCCC"/>
</svg>
