<svg width="32" height="33" viewBox="0 0 32 33" fill="none" xmlns="http://www.w3.org/2000/svg">
<path d="M6.66667 16.5H4L16 4.5L28 16.5H25.3333M6.66667 16.5V25.8333C6.66667 26.5406 6.94762 27.2189 7.44772 27.719C7.94781 28.219 8.62609 28.5 9.33333 28.5H22.6667C23.3739 28.5 24.0522 28.219 24.5523 27.719C25.0524 27.2189 25.3333 26.5406 25.3333 25.8333V16.5" stroke="#BFBCCC" stroke-width="2" stroke-linecap="round" stroke-linejoin="round"/>
<path d="M12 28.4999V20.4999C12 19.7927 12.281 19.1144 12.781 18.6143C13.2811 18.1142 13.9594 17.8333 14.6667 17.8333H17.3333C18.0406 17.8333 18.7189 18.1142 19.219 18.6143C19.719 19.1144 20 19.7927 20 20.4999V28.4999" stroke="#BFBCCC" stroke-width="2" stroke-linecap="round" stroke-linejoin="round"/>
</svg>
